# xmcd
#
# Track frame offsets: 
#        150
#        23645
#        50875
#        75150
#        105475
#        122975
#        141050
#        166075
#        183712
#
# Disc length: 2941 seconds
#
# Revision: 9
# Processed by: cddbd v1.5.2PL0 Copyright (c) Steve Scherf et al.
# Submitted via: ExactAudioCopy v1.0b3
#
DISCID=6e0b7b09
DTITLE=中島みゆき - 寒水魚
DYEAR=1986
DGENRE=JPop
TTITLE0=悪女
TTITLE1=傾斜
TTITLE2=鳥になって
TTITLE3=捨てるほどの愛でいいから
TTITLE4=BGM
TTITLE5=家出
TTITLE6=時刻表
TTITLE7=砂の舟
TTITLE8=歌姫
EXTD=
EXTT0=
EXTT1=
EXTT2=
EXTT3=
EXTT4=
EXTT5=
EXTT6=
EXTT7=
EXTT8=
PLAYORDER=
